<mxfile host="app.diagrams.net" agent="Mozilla/5.0 (Windows NT 10.0; Win64; x64) AppleWebKit/537.36 (KHTML, like Gecko) Chrome/127.0.0.0 Safari/537.36 OPR/113.0.0.0" version="24.7.17">
  <diagram name="1 oldal" id="Drmbw2LG8-l5uVLof142">
    <mxGraphModel dx="2560" dy="1974" grid="0" gridSize="10" guides="1" tooltips="1" connect="1" arrows="1" fold="1" page="0" pageScale="1" pageWidth="827" pageHeight="1169" math="0" shadow="0">
      <root>
        <mxCell id="0" />
        <mxCell id="1" parent="0" />
        <mxCell id="3i7kKfKKElpx0XJNgIAO-1" value="Etterem" style="ellipse;whiteSpace=wrap;html=1;labelBackgroundColor=none;gradientColor=default;fillColor=default;" vertex="1" parent="1">
          <mxGeometry x="1360" y="-80" width="120" height="80" as="geometry" />
        </mxCell>
        <mxCell id="3i7kKfKKElpx0XJNgIAO-2" value="Vendeg" style="ellipse;whiteSpace=wrap;html=1;labelBackgroundColor=none;gradientColor=default;fillColor=default;" vertex="1" parent="1">
          <mxGeometry x="1365" y="-75" width="110" height="70" as="geometry" />
        </mxCell>
        <mxCell id="3i7kKfKKElpx0XJNgIAO-3" value="Cim" style="ellipse;whiteSpace=wrap;html=1;labelBackgroundColor=none;gradientColor=default;fillColor=default;" vertex="1" parent="1">
          <mxGeometry x="1367.5" y="80" width="105" height="60" as="geometry" />
        </mxCell>
        <mxCell id="3i7kKfKKElpx0XJNgIAO-4" value="" style="endArrow=none;html=1;rounded=0;fontSize=12;startSize=8;endSize=8;curved=1;exitX=0.5;exitY=0;exitDx=0;exitDy=0;" edge="1" parent="1" source="3i7kKfKKElpx0XJNgIAO-3">
          <mxGeometry width="50" height="50" relative="1" as="geometry">
            <mxPoint x="1400" y="60" as="sourcePoint" />
            <mxPoint x="1420" as="targetPoint" />
          </mxGeometry>
        </mxCell>
        <mxCell id="3i7kKfKKElpx0XJNgIAO-5" value="Varos" style="ellipse;whiteSpace=wrap;html=1;labelBackgroundColor=none;gradientColor=default;fillColor=default;" vertex="1" parent="1">
          <mxGeometry x="1250" y="170" width="105" height="60" as="geometry" />
        </mxCell>
        <mxCell id="3i7kKfKKElpx0XJNgIAO-6" value="&lt;div&gt;Utca&lt;/div&gt;" style="ellipse;whiteSpace=wrap;html=1;labelBackgroundColor=none;gradientColor=default;fillColor=default;" vertex="1" parent="1">
          <mxGeometry x="1367.5" y="170" width="105" height="60" as="geometry" />
        </mxCell>
        <mxCell id="3i7kKfKKElpx0XJNgIAO-7" value="&lt;div&gt;Hazszam&lt;/div&gt;" style="ellipse;whiteSpace=wrap;html=1;labelBackgroundColor=none;gradientColor=default;fillColor=default;" vertex="1" parent="1">
          <mxGeometry x="1490" y="170" width="105" height="60" as="geometry" />
        </mxCell>
        <mxCell id="3i7kKfKKElpx0XJNgIAO-8" value="" style="endArrow=none;html=1;rounded=0;fontSize=12;startSize=8;endSize=8;curved=1;entryX=0.5;entryY=1;entryDx=0;entryDy=0;exitX=0.5;exitY=0;exitDx=0;exitDy=0;" edge="1" parent="1" source="3i7kKfKKElpx0XJNgIAO-6" target="3i7kKfKKElpx0XJNgIAO-3">
          <mxGeometry width="50" height="50" relative="1" as="geometry">
            <mxPoint x="1390" y="100" as="sourcePoint" />
            <mxPoint x="1440" y="50" as="targetPoint" />
          </mxGeometry>
        </mxCell>
        <mxCell id="3i7kKfKKElpx0XJNgIAO-9" value="" style="endArrow=none;html=1;rounded=0;fontSize=12;startSize=8;endSize=8;curved=1;entryX=0.5;entryY=1;entryDx=0;entryDy=0;exitX=0.5;exitY=0;exitDx=0;exitDy=0;" edge="1" parent="1" source="3i7kKfKKElpx0XJNgIAO-5" target="3i7kKfKKElpx0XJNgIAO-3">
          <mxGeometry width="50" height="50" relative="1" as="geometry">
            <mxPoint x="1390" y="100" as="sourcePoint" />
            <mxPoint x="1440" y="50" as="targetPoint" />
          </mxGeometry>
        </mxCell>
        <mxCell id="3i7kKfKKElpx0XJNgIAO-10" value="" style="endArrow=none;html=1;rounded=0;fontSize=12;startSize=8;endSize=8;curved=1;entryX=0.5;entryY=1;entryDx=0;entryDy=0;exitX=0.5;exitY=0;exitDx=0;exitDy=0;" edge="1" parent="1" source="3i7kKfKKElpx0XJNgIAO-7" target="3i7kKfKKElpx0XJNgIAO-3">
          <mxGeometry width="50" height="50" relative="1" as="geometry">
            <mxPoint x="1390" y="100" as="sourcePoint" />
            <mxPoint x="1440" y="50" as="targetPoint" />
          </mxGeometry>
        </mxCell>
        <mxCell id="3i7kKfKKElpx0XJNgIAO-11" value="Nev" style="ellipse;whiteSpace=wrap;html=1;labelBackgroundColor=none;gradientColor=default;fillColor=default;" vertex="1" parent="1">
          <mxGeometry x="1152.5" y="80" width="105" height="60" as="geometry" />
        </mxCell>
        <mxCell id="3i7kKfKKElpx0XJNgIAO-12" value="Eletkor" style="ellipse;whiteSpace=wrap;html=1;labelBackgroundColor=none;gradientColor=default;fillColor=default;" vertex="1" parent="1">
          <mxGeometry x="1595" y="80" width="105" height="60" as="geometry" />
        </mxCell>
        <mxCell id="3i7kKfKKElpx0XJNgIAO-13" value="" style="endArrow=none;html=1;rounded=0;fontSize=12;startSize=8;endSize=8;curved=1;exitX=0.5;exitY=0;exitDx=0;exitDy=0;" edge="1" parent="1" source="3i7kKfKKElpx0XJNgIAO-11">
          <mxGeometry width="50" height="50" relative="1" as="geometry">
            <mxPoint x="1390" y="100" as="sourcePoint" />
            <mxPoint x="1420" as="targetPoint" />
          </mxGeometry>
        </mxCell>
        <mxCell id="3i7kKfKKElpx0XJNgIAO-14" value="" style="endArrow=none;html=1;rounded=0;fontSize=12;startSize=8;endSize=8;curved=1;exitX=0.5;exitY=0;exitDx=0;exitDy=0;" edge="1" parent="1" source="3i7kKfKKElpx0XJNgIAO-12">
          <mxGeometry width="50" height="50" relative="1" as="geometry">
            <mxPoint x="1390" y="100" as="sourcePoint" />
            <mxPoint x="1420" as="targetPoint" />
          </mxGeometry>
        </mxCell>
        <mxCell id="3i7kKfKKElpx0XJNgIAO-15" value="" style="rounded=0;whiteSpace=wrap;html=1;fillColor=default;fillStyle=solid;gradientColor=default;" vertex="1" parent="1">
          <mxGeometry x="1180" y="180" width="50" height="70" as="geometry" />
        </mxCell>
        <mxCell id="3i7kKfKKElpx0XJNgIAO-16" value="" style="rounded=0;whiteSpace=wrap;html=1;fillColor=default;fillStyle=solid;gradientColor=default;" vertex="1" parent="1">
          <mxGeometry x="1277.5" y="270" width="50" height="70" as="geometry" />
        </mxCell>
        <mxCell id="3i7kKfKKElpx0XJNgIAO-17" value="" style="rounded=0;whiteSpace=wrap;html=1;fillColor=default;fillStyle=solid;gradientColor=default;" vertex="1" parent="1">
          <mxGeometry x="1395" y="270" width="50" height="70" as="geometry" />
        </mxCell>
        <mxCell id="3i7kKfKKElpx0XJNgIAO-18" value="" style="rounded=0;whiteSpace=wrap;html=1;fillColor=default;fillStyle=solid;gradientColor=default;" vertex="1" parent="1">
          <mxGeometry x="1517.5" y="270" width="50" height="70" as="geometry" />
        </mxCell>
        <mxCell id="3i7kKfKKElpx0XJNgIAO-19" value="" style="endArrow=none;html=1;rounded=0;fontSize=12;startSize=8;endSize=8;curved=1;entryX=0.5;entryY=1;entryDx=0;entryDy=0;exitX=0.5;exitY=0;exitDx=0;exitDy=0;" edge="1" parent="1" source="3i7kKfKKElpx0XJNgIAO-15" target="3i7kKfKKElpx0XJNgIAO-11">
          <mxGeometry width="50" height="50" relative="1" as="geometry">
            <mxPoint x="1270" y="160" as="sourcePoint" />
            <mxPoint x="1320" y="110" as="targetPoint" />
          </mxGeometry>
        </mxCell>
        <mxCell id="3i7kKfKKElpx0XJNgIAO-20" value="" style="endArrow=none;html=1;rounded=0;fontSize=12;startSize=8;endSize=8;curved=1;entryX=0.5;entryY=1;entryDx=0;entryDy=0;exitX=0.5;exitY=0;exitDx=0;exitDy=0;" edge="1" parent="1" source="3i7kKfKKElpx0XJNgIAO-16" target="3i7kKfKKElpx0XJNgIAO-5">
          <mxGeometry width="50" height="50" relative="1" as="geometry">
            <mxPoint x="1370" y="220" as="sourcePoint" />
            <mxPoint x="1420" y="170" as="targetPoint" />
          </mxGeometry>
        </mxCell>
        <mxCell id="3i7kKfKKElpx0XJNgIAO-21" value="" style="endArrow=none;html=1;rounded=0;fontSize=12;startSize=8;endSize=8;curved=1;entryX=0.5;entryY=1;entryDx=0;entryDy=0;exitX=0.5;exitY=0;exitDx=0;exitDy=0;" edge="1" parent="1" source="3i7kKfKKElpx0XJNgIAO-17" target="3i7kKfKKElpx0XJNgIAO-6">
          <mxGeometry width="50" height="50" relative="1" as="geometry">
            <mxPoint x="1370" y="220" as="sourcePoint" />
            <mxPoint x="1420" y="170" as="targetPoint" />
          </mxGeometry>
        </mxCell>
        <mxCell id="3i7kKfKKElpx0XJNgIAO-22" value="" style="endArrow=none;html=1;rounded=0;fontSize=12;startSize=8;endSize=8;curved=1;entryX=0.5;entryY=1;entryDx=0;entryDy=0;exitX=0.5;exitY=0;exitDx=0;exitDy=0;" edge="1" parent="1" source="3i7kKfKKElpx0XJNgIAO-18" target="3i7kKfKKElpx0XJNgIAO-7">
          <mxGeometry width="50" height="50" relative="1" as="geometry">
            <mxPoint x="1370" y="220" as="sourcePoint" />
            <mxPoint x="1420" y="170" as="targetPoint" />
          </mxGeometry>
        </mxCell>
        <mxCell id="3i7kKfKKElpx0XJNgIAO-23" value="" style="rounded=0;whiteSpace=wrap;html=1;fillColor=default;fillStyle=solid;gradientColor=default;" vertex="1" parent="1">
          <mxGeometry x="1622.5" y="180" width="50" height="70" as="geometry" />
        </mxCell>
        <mxCell id="3i7kKfKKElpx0XJNgIAO-24" value="" style="endArrow=none;html=1;rounded=0;fontSize=12;startSize=8;endSize=8;curved=1;entryX=0.5;entryY=1;entryDx=0;entryDy=0;exitX=0.5;exitY=0;exitDx=0;exitDy=0;" edge="1" parent="1" source="3i7kKfKKElpx0XJNgIAO-23" target="3i7kKfKKElpx0XJNgIAO-12">
          <mxGeometry width="50" height="50" relative="1" as="geometry">
            <mxPoint x="1370" y="220" as="sourcePoint" />
            <mxPoint x="1420" y="170" as="targetPoint" />
          </mxGeometry>
        </mxCell>
        <mxCell id="3i7kKfKKElpx0XJNgIAO-25" value="FEU2E5_Vendeglatas" style="ellipse;whiteSpace=wrap;html=1;labelBackgroundColor=none;gradientColor=default;fillColor=default;" vertex="1" parent="1">
          <mxGeometry x="963" y="-480" width="175" height="90" as="geometry" />
        </mxCell>
        <mxCell id="3i7kKfKKElpx0XJNgIAO-26" value="" style="endArrow=none;html=1;rounded=0;fontSize=12;startSize=8;endSize=8;curved=1;exitX=0.5;exitY=1;exitDx=0;exitDy=0;entryX=0.5;entryY=0;entryDx=0;entryDy=0;" edge="1" parent="1" source="3i7kKfKKElpx0XJNgIAO-25" target="3i7kKfKKElpx0XJNgIAO-1">
          <mxGeometry width="50" height="50" relative="1" as="geometry">
            <mxPoint x="-500" y="35" as="sourcePoint" />
            <mxPoint x="-420" y="-105" as="targetPoint" />
          </mxGeometry>
        </mxCell>
        <mxCell id="3i7kKfKKElpx0XJNgIAO-27" value="Etterem" style="ellipse;whiteSpace=wrap;html=1;labelBackgroundColor=none;gradientColor=default;fillColor=default;" vertex="1" parent="1">
          <mxGeometry x="40" y="-85" width="120" height="80" as="geometry" />
        </mxCell>
        <mxCell id="3i7kKfKKElpx0XJNgIAO-28" value="Foszakacs" style="ellipse;whiteSpace=wrap;html=1;labelBackgroundColor=none;gradientColor=default;fillColor=default;" vertex="1" parent="1">
          <mxGeometry x="45" y="-80" width="110" height="70" as="geometry" />
        </mxCell>
        <mxCell id="3i7kKfKKElpx0XJNgIAO-29" value="Ekod" style="rhombus;whiteSpace=wrap;html=1;gradientColor=default;" vertex="1" parent="1">
          <mxGeometry x="-1034" y="-6.879999999999999" width="80" height="80" as="geometry" />
        </mxCell>
        <mxCell id="3i7kKfKKElpx0XJNgIAO-31" value="Nev" style="ellipse;whiteSpace=wrap;html=1;labelBackgroundColor=none;gradientColor=default;fillColor=default;" vertex="1" parent="1">
          <mxGeometry x="40" y="75" width="105" height="60" as="geometry" />
        </mxCell>
        <mxCell id="3i7kKfKKElpx0XJNgIAO-32" value="Eletkor" style="ellipse;whiteSpace=wrap;html=1;labelBackgroundColor=none;gradientColor=default;fillColor=default;" vertex="1" parent="1">
          <mxGeometry x="170" y="73.12" width="105" height="60" as="geometry" />
        </mxCell>
        <mxCell id="3i7kKfKKElpx0XJNgIAO-33" value="" style="endArrow=none;html=1;rounded=0;fontSize=12;startSize=8;endSize=8;curved=1;entryX=0.5;entryY=1;entryDx=0;entryDy=0;exitX=0.5;exitY=0;exitDx=0;exitDy=0;" edge="1" parent="1" source="3i7kKfKKElpx0XJNgIAO-31" target="3i7kKfKKElpx0XJNgIAO-27">
          <mxGeometry width="50" height="50" relative="1" as="geometry">
            <mxPoint x="330" y="145" as="sourcePoint" />
            <mxPoint x="380" y="95" as="targetPoint" />
          </mxGeometry>
        </mxCell>
        <mxCell id="3i7kKfKKElpx0XJNgIAO-34" value="" style="endArrow=none;html=1;rounded=0;fontSize=12;startSize=8;endSize=8;curved=1;entryX=0.5;entryY=1;entryDx=0;entryDy=0;exitX=0.5;exitY=0;exitDx=0;exitDy=0;" edge="1" parent="1" source="3i7kKfKKElpx0XJNgIAO-32" target="3i7kKfKKElpx0XJNgIAO-27">
          <mxGeometry width="50" height="50" relative="1" as="geometry">
            <mxPoint x="330" y="145" as="sourcePoint" />
            <mxPoint x="380" y="95" as="targetPoint" />
          </mxGeometry>
        </mxCell>
        <mxCell id="3i7kKfKKElpx0XJNgIAO-35" value="" style="endArrow=none;html=1;rounded=0;fontSize=12;startSize=8;endSize=8;curved=1;exitX=0.5;exitY=0;exitDx=0;exitDy=0;entryX=0.5;entryY=1;entryDx=0;entryDy=0;" edge="1" parent="1" source="3i7kKfKKElpx0XJNgIAO-27" target="3i7kKfKKElpx0XJNgIAO-25">
          <mxGeometry width="50" height="50" relative="1" as="geometry">
            <mxPoint x="-720" y="55" as="sourcePoint" />
            <mxPoint x="-440" y="-195" as="targetPoint" />
          </mxGeometry>
        </mxCell>
        <mxCell id="3i7kKfKKElpx0XJNgIAO-36" value="Vegzettseg" style="ellipse;whiteSpace=wrap;html=1;labelBackgroundColor=none;gradientColor=default;fillColor=default;" vertex="1" parent="1">
          <mxGeometry x="-80" y="75" width="105" height="60" as="geometry" />
        </mxCell>
        <mxCell id="3i7kKfKKElpx0XJNgIAO-37" value="Vegzettseg" style="ellipse;whiteSpace=wrap;html=1;labelBackgroundColor=none;gradientColor=default;fillColor=default;" vertex="1" parent="1">
          <mxGeometry x="-76.5" y="76.87" width="98" height="56.25" as="geometry" />
        </mxCell>
        <mxCell id="3i7kKfKKElpx0XJNgIAO-38" value="" style="endArrow=none;html=1;rounded=0;fontSize=12;startSize=8;endSize=8;curved=1;entryX=0.5;entryY=1;entryDx=0;entryDy=0;exitX=0.5;exitY=0;exitDx=0;exitDy=0;" edge="1" parent="1" source="3i7kKfKKElpx0XJNgIAO-36" target="3i7kKfKKElpx0XJNgIAO-27">
          <mxGeometry width="50" height="50" relative="1" as="geometry">
            <mxPoint x="-10" y="65" as="sourcePoint" />
            <mxPoint x="40" y="15" as="targetPoint" />
          </mxGeometry>
        </mxCell>
        <mxCell id="3i7kKfKKElpx0XJNgIAO-39" value="E-F" style="rhombus;whiteSpace=wrap;html=1;gradientColor=default;" vertex="1" parent="1">
          <mxGeometry x="310" y="-6.8799999999999955" width="80" height="80" as="geometry" />
        </mxCell>
        <mxCell id="3i7kKfKKElpx0XJNgIAO-40" value="" style="endArrow=none;html=1;rounded=0;fontSize=12;startSize=8;endSize=8;curved=1;exitX=0.5;exitY=0;exitDx=0;exitDy=0;" edge="1" parent="1" source="3i7kKfKKElpx0XJNgIAO-39">
          <mxGeometry width="50" height="50" relative="1" as="geometry">
            <mxPoint x="170" y="125" as="sourcePoint" />
            <mxPoint x="100" y="-5" as="targetPoint" />
          </mxGeometry>
        </mxCell>
        <mxCell id="3i7kKfKKElpx0XJNgIAO-41" value="" style="rounded=0;whiteSpace=wrap;html=1;fillColor=default;fillStyle=solid;gradientColor=default;" vertex="1" parent="1">
          <mxGeometry x="-52.5" y="175" width="50" height="70" as="geometry" />
        </mxCell>
        <mxCell id="3i7kKfKKElpx0XJNgIAO-42" value="" style="rounded=0;whiteSpace=wrap;html=1;fillColor=default;fillStyle=solid;gradientColor=default;" vertex="1" parent="1">
          <mxGeometry x="67.5" y="175" width="50" height="70" as="geometry" />
        </mxCell>
        <mxCell id="3i7kKfKKElpx0XJNgIAO-43" value="" style="rounded=0;whiteSpace=wrap;html=1;fillColor=default;fillStyle=solid;gradientColor=default;" vertex="1" parent="1">
          <mxGeometry x="197.5" y="175" width="50" height="70" as="geometry" />
        </mxCell>
        <mxCell id="3i7kKfKKElpx0XJNgIAO-44" value="" style="endArrow=none;html=1;rounded=0;fontSize=12;startSize=8;endSize=8;curved=1;entryX=0.5;entryY=1;entryDx=0;entryDy=0;exitX=0.5;exitY=0;exitDx=0;exitDy=0;" edge="1" parent="1" source="3i7kKfKKElpx0XJNgIAO-41" target="3i7kKfKKElpx0XJNgIAO-36">
          <mxGeometry width="50" height="50" relative="1" as="geometry">
            <mxPoint x="-20" y="235" as="sourcePoint" />
            <mxPoint x="30" y="185" as="targetPoint" />
          </mxGeometry>
        </mxCell>
        <mxCell id="3i7kKfKKElpx0XJNgIAO-45" value="" style="endArrow=none;html=1;rounded=0;fontSize=12;startSize=8;endSize=8;curved=1;entryX=0.5;entryY=1;entryDx=0;entryDy=0;exitX=0.5;exitY=0;exitDx=0;exitDy=0;" edge="1" parent="1" source="3i7kKfKKElpx0XJNgIAO-42" target="3i7kKfKKElpx0XJNgIAO-31">
          <mxGeometry width="50" height="50" relative="1" as="geometry">
            <mxPoint x="120" y="225" as="sourcePoint" />
            <mxPoint x="170" y="175" as="targetPoint" />
          </mxGeometry>
        </mxCell>
        <mxCell id="3i7kKfKKElpx0XJNgIAO-46" value="" style="endArrow=none;html=1;rounded=0;fontSize=12;startSize=8;endSize=8;curved=1;entryX=0.5;entryY=1;entryDx=0;entryDy=0;exitX=0.5;exitY=0;exitDx=0;exitDy=0;" edge="1" parent="1" source="3i7kKfKKElpx0XJNgIAO-43" target="3i7kKfKKElpx0XJNgIAO-32">
          <mxGeometry width="50" height="50" relative="1" as="geometry">
            <mxPoint x="120" y="225" as="sourcePoint" />
            <mxPoint x="170" y="175" as="targetPoint" />
          </mxGeometry>
        </mxCell>
        <mxCell id="3i7kKfKKElpx0XJNgIAO-47" value="Etterem" style="ellipse;whiteSpace=wrap;html=1;labelBackgroundColor=none;gradientColor=default;fillColor=default;" vertex="1" parent="1">
          <mxGeometry x="680" y="-85" width="120" height="80" as="geometry" />
        </mxCell>
        <mxCell id="3i7kKfKKElpx0XJNgIAO-48" value="Szakacs" style="ellipse;whiteSpace=wrap;html=1;labelBackgroundColor=none;gradientColor=default;fillColor=default;" vertex="1" parent="1">
          <mxGeometry x="685" y="-80" width="110" height="70" as="geometry" />
        </mxCell>
        <mxCell id="3i7kKfKKElpx0XJNgIAO-49" value="" style="endArrow=none;html=1;rounded=0;fontSize=12;startSize=8;endSize=8;curved=1;entryX=0.5;entryY=1;entryDx=0;entryDy=0;exitX=0.5;exitY=0;exitDx=0;exitDy=0;" edge="1" parent="1" source="3i7kKfKKElpx0XJNgIAO-47" target="3i7kKfKKElpx0XJNgIAO-25">
          <mxGeometry width="50" height="50" relative="1" as="geometry">
            <mxPoint x="440" y="-95" as="sourcePoint" />
            <mxPoint x="490" y="-145" as="targetPoint" />
          </mxGeometry>
        </mxCell>
        <mxCell id="3i7kKfKKElpx0XJNgIAO-50" value="Etterem" style="ellipse;whiteSpace=wrap;html=1;labelBackgroundColor=none;gradientColor=default;fillColor=default;" vertex="1" parent="1">
          <mxGeometry x="1976.25" y="-75" width="120" height="80" as="geometry" />
        </mxCell>
        <mxCell id="3i7kKfKKElpx0XJNgIAO-51" value="Rendeles" style="ellipse;whiteSpace=wrap;html=1;labelBackgroundColor=none;gradientColor=default;fillColor=default;" vertex="1" parent="1">
          <mxGeometry x="1981.25" y="-70" width="110" height="70" as="geometry" />
        </mxCell>
        <mxCell id="3i7kKfKKElpx0XJNgIAO-52" value="Nev" style="ellipse;whiteSpace=wrap;html=1;labelBackgroundColor=none;gradientColor=default;fillColor=default;" vertex="1" parent="1">
          <mxGeometry x="560" y="73.12" width="105" height="60" as="geometry" />
        </mxCell>
        <mxCell id="3i7kKfKKElpx0XJNgIAO-53" value="Reszleg" style="ellipse;whiteSpace=wrap;html=1;labelBackgroundColor=none;gradientColor=default;fillColor=default;" vertex="1" parent="1">
          <mxGeometry x="687.5" y="73.12" width="105" height="60" as="geometry" />
        </mxCell>
        <mxCell id="3i7kKfKKElpx0XJNgIAO-54" value="Vegzettseg" style="ellipse;whiteSpace=wrap;html=1;labelBackgroundColor=none;gradientColor=default;fillColor=default;" vertex="1" parent="1">
          <mxGeometry x="820" y="73.12" width="105" height="60" as="geometry" />
        </mxCell>
        <mxCell id="3i7kKfKKElpx0XJNgIAO-55" value="Vegzettseg" style="ellipse;whiteSpace=wrap;html=1;labelBackgroundColor=none;gradientColor=default;fillColor=default;" vertex="1" parent="1">
          <mxGeometry x="823.5" y="74.99000000000001" width="98" height="56.25" as="geometry" />
        </mxCell>
        <mxCell id="3i7kKfKKElpx0XJNgIAO-56" value="" style="endArrow=none;html=1;rounded=0;fontSize=12;startSize=8;endSize=8;curved=1;entryX=0.5;entryY=1;entryDx=0;entryDy=0;exitX=0.5;exitY=0;exitDx=0;exitDy=0;" edge="1" parent="1" source="3i7kKfKKElpx0XJNgIAO-52" target="3i7kKfKKElpx0XJNgIAO-47">
          <mxGeometry width="50" height="50" relative="1" as="geometry">
            <mxPoint x="670" y="105" as="sourcePoint" />
            <mxPoint x="720" y="55" as="targetPoint" />
          </mxGeometry>
        </mxCell>
        <mxCell id="3i7kKfKKElpx0XJNgIAO-57" value="" style="endArrow=none;html=1;rounded=0;fontSize=12;startSize=8;endSize=8;curved=1;exitX=0.5;exitY=0;exitDx=0;exitDy=0;" edge="1" parent="1" source="3i7kKfKKElpx0XJNgIAO-53">
          <mxGeometry width="50" height="50" relative="1" as="geometry">
            <mxPoint x="670" y="105" as="sourcePoint" />
            <mxPoint x="740" y="-5" as="targetPoint" />
          </mxGeometry>
        </mxCell>
        <mxCell id="3i7kKfKKElpx0XJNgIAO-58" value="" style="endArrow=none;html=1;rounded=0;fontSize=12;startSize=8;endSize=8;curved=1;entryX=0.5;entryY=1;entryDx=0;entryDy=0;exitX=0.5;exitY=0;exitDx=0;exitDy=0;" edge="1" parent="1" source="3i7kKfKKElpx0XJNgIAO-54" target="3i7kKfKKElpx0XJNgIAO-47">
          <mxGeometry width="50" height="50" relative="1" as="geometry">
            <mxPoint x="670" y="105" as="sourcePoint" />
            <mxPoint x="720" y="55" as="targetPoint" />
          </mxGeometry>
        </mxCell>
        <mxCell id="3i7kKfKKElpx0XJNgIAO-59" value="Szkod" style="rhombus;whiteSpace=wrap;html=1;gradientColor=default;" vertex="1" parent="1">
          <mxGeometry x="465" y="-3.1299999999999955" width="80" height="80" as="geometry" />
        </mxCell>
        <mxCell id="3i7kKfKKElpx0XJNgIAO-60" value="E-Sz" style="rhombus;whiteSpace=wrap;html=1;gradientColor=default;" vertex="1" parent="1">
          <mxGeometry x="950" y="-3.1299999999999955" width="80" height="80" as="geometry" />
        </mxCell>
        <mxCell id="3i7kKfKKElpx0XJNgIAO-61" value="" style="endArrow=none;dashed=1;html=1;dashPattern=1 3;strokeWidth=2;rounded=0;fontSize=12;startSize=8;endSize=8;startArrow=classic;startFill=1;edgeStyle=elbowEdgeStyle;exitX=1;exitY=1;exitDx=0;exitDy=0;entryX=0.5;entryY=1;entryDx=0;entryDy=0;elbow=vertical;" edge="1" parent="1" source="3i7kKfKKElpx0XJNgIAO-29" target="3i7kKfKKElpx0XJNgIAO-39">
          <mxGeometry width="50" height="50" relative="1" as="geometry">
            <mxPoint x="-780" y="405" as="sourcePoint" />
            <mxPoint x="-150" y="405" as="targetPoint" />
            <Array as="points">
              <mxPoint x="-310" y="376" />
            </Array>
          </mxGeometry>
        </mxCell>
        <mxCell id="3i7kKfKKElpx0XJNgIAO-62" value="" style="endArrow=none;dashed=1;html=1;dashPattern=1 3;strokeWidth=2;rounded=0;fontSize=12;startSize=8;endSize=8;startArrow=classic;startFill=1;edgeStyle=elbowEdgeStyle;exitX=0.5;exitY=1;exitDx=0;exitDy=0;entryX=0.5;entryY=1;entryDx=0;entryDy=0;elbow=vertical;" edge="1" parent="1" source="3i7kKfKKElpx0XJNgIAO-29" target="3i7kKfKKElpx0XJNgIAO-60">
          <mxGeometry width="50" height="50" relative="1" as="geometry">
            <mxPoint x="-770" y="131.24" as="sourcePoint" />
            <mxPoint x="700" y="205" as="targetPoint" />
            <Array as="points">
              <mxPoint x="-13" y="438" />
            </Array>
          </mxGeometry>
        </mxCell>
        <mxCell id="3i7kKfKKElpx0XJNgIAO-63" value="" style="endArrow=none;html=1;rounded=0;fontSize=12;startSize=8;endSize=8;curved=1;entryX=0.5;entryY=0;entryDx=0;entryDy=0;" edge="1" parent="1" target="3i7kKfKKElpx0XJNgIAO-59">
          <mxGeometry width="50" height="50" relative="1" as="geometry">
            <mxPoint x="740" y="-3" as="sourcePoint" />
            <mxPoint x="730" y="45" as="targetPoint" />
          </mxGeometry>
        </mxCell>
        <mxCell id="3i7kKfKKElpx0XJNgIAO-64" value="" style="endArrow=none;html=1;rounded=0;fontSize=12;startSize=8;endSize=8;curved=1;exitX=0.5;exitY=0;exitDx=0;exitDy=0;" edge="1" parent="1" source="3i7kKfKKElpx0XJNgIAO-60">
          <mxGeometry width="50" height="50" relative="1" as="geometry">
            <mxPoint x="820" y="75" as="sourcePoint" />
            <mxPoint x="740" y="-5" as="targetPoint" />
          </mxGeometry>
        </mxCell>
        <mxCell id="3i7kKfKKElpx0XJNgIAO-65" value="" style="rounded=0;whiteSpace=wrap;html=1;fillColor=default;fillStyle=solid;gradientColor=default;" vertex="1" parent="1">
          <mxGeometry x="587.5" y="175" width="50" height="70" as="geometry" />
        </mxCell>
        <mxCell id="3i7kKfKKElpx0XJNgIAO-66" value="" style="rounded=0;whiteSpace=wrap;html=1;fillColor=default;fillStyle=solid;gradientColor=default;" vertex="1" parent="1">
          <mxGeometry x="715" y="175" width="50" height="70" as="geometry" />
        </mxCell>
        <mxCell id="3i7kKfKKElpx0XJNgIAO-67" value="" style="rounded=0;whiteSpace=wrap;html=1;fillColor=default;fillStyle=solid;gradientColor=default;" vertex="1" parent="1">
          <mxGeometry x="847.5" y="175" width="50" height="70" as="geometry" />
        </mxCell>
        <mxCell id="3i7kKfKKElpx0XJNgIAO-68" value="" style="endArrow=none;html=1;rounded=0;fontSize=12;startSize=8;endSize=8;curved=1;entryX=0.5;entryY=1;entryDx=0;entryDy=0;exitX=0.5;exitY=0;exitDx=0;exitDy=0;" edge="1" parent="1" source="3i7kKfKKElpx0XJNgIAO-67" target="3i7kKfKKElpx0XJNgIAO-54">
          <mxGeometry width="50" height="50" relative="1" as="geometry">
            <mxPoint x="690" y="165" as="sourcePoint" />
            <mxPoint x="740" y="115" as="targetPoint" />
          </mxGeometry>
        </mxCell>
        <mxCell id="3i7kKfKKElpx0XJNgIAO-69" value="" style="endArrow=none;html=1;rounded=0;fontSize=12;startSize=8;endSize=8;curved=1;entryX=0.5;entryY=1;entryDx=0;entryDy=0;exitX=0.5;exitY=0;exitDx=0;exitDy=0;" edge="1" parent="1" source="3i7kKfKKElpx0XJNgIAO-66" target="3i7kKfKKElpx0XJNgIAO-53">
          <mxGeometry width="50" height="50" relative="1" as="geometry">
            <mxPoint x="690" y="165" as="sourcePoint" />
            <mxPoint x="740" y="115" as="targetPoint" />
          </mxGeometry>
        </mxCell>
        <mxCell id="3i7kKfKKElpx0XJNgIAO-70" value="" style="endArrow=none;html=1;rounded=0;fontSize=12;startSize=8;endSize=8;curved=1;exitX=0.5;exitY=1;exitDx=0;exitDy=0;entryX=0.5;entryY=0;entryDx=0;entryDy=0;" edge="1" parent="1" source="3i7kKfKKElpx0XJNgIAO-52" target="3i7kKfKKElpx0XJNgIAO-65">
          <mxGeometry width="50" height="50" relative="1" as="geometry">
            <mxPoint x="690" y="165" as="sourcePoint" />
            <mxPoint x="740" y="115" as="targetPoint" />
          </mxGeometry>
        </mxCell>
        <mxCell id="3i7kKfKKElpx0XJNgIAO-71" value="Nev" style="ellipse;whiteSpace=wrap;html=1;labelBackgroundColor=none;gradientColor=default;fillColor=default;" vertex="1" parent="1">
          <mxGeometry x="1920" y="65" width="105" height="60" as="geometry" />
        </mxCell>
        <mxCell id="3i7kKfKKElpx0XJNgIAO-72" value="Etel" style="ellipse;whiteSpace=wrap;html=1;labelBackgroundColor=none;gradientColor=default;fillColor=default;" vertex="1" parent="1">
          <mxGeometry x="2047.5" y="65" width="105" height="60" as="geometry" />
        </mxCell>
        <mxCell id="3i7kKfKKElpx0XJNgIAO-73" value="" style="rounded=0;whiteSpace=wrap;html=1;fillColor=default;fillStyle=solid;gradientColor=default;" vertex="1" parent="1">
          <mxGeometry x="1947.5" y="175" width="50" height="70" as="geometry" />
        </mxCell>
        <mxCell id="3i7kKfKKElpx0XJNgIAO-74" value="" style="rounded=0;whiteSpace=wrap;html=1;fillColor=default;fillStyle=solid;gradientColor=default;" vertex="1" parent="1">
          <mxGeometry x="2075" y="175" width="50" height="70" as="geometry" />
        </mxCell>
        <mxCell id="3i7kKfKKElpx0XJNgIAO-75" value="" style="endArrow=none;html=1;rounded=0;fontSize=12;startSize=8;endSize=8;curved=1;entryX=0.5;entryY=1;entryDx=0;entryDy=0;exitX=0.5;exitY=0;exitDx=0;exitDy=0;" edge="1" parent="1" source="3i7kKfKKElpx0XJNgIAO-74" target="3i7kKfKKElpx0XJNgIAO-72">
          <mxGeometry width="50" height="50" relative="1" as="geometry">
            <mxPoint x="2050" y="126.88" as="sourcePoint" />
            <mxPoint x="2100" y="76.88" as="targetPoint" />
          </mxGeometry>
        </mxCell>
        <mxCell id="3i7kKfKKElpx0XJNgIAO-76" value="" style="endArrow=none;html=1;rounded=0;fontSize=12;startSize=8;endSize=8;curved=1;exitX=0.5;exitY=1;exitDx=0;exitDy=0;entryX=0.5;entryY=0;entryDx=0;entryDy=0;" edge="1" parent="1" source="3i7kKfKKElpx0XJNgIAO-71" target="3i7kKfKKElpx0XJNgIAO-73">
          <mxGeometry width="50" height="50" relative="1" as="geometry">
            <mxPoint x="2050" y="126.88" as="sourcePoint" />
            <mxPoint x="2100" y="76.88" as="targetPoint" />
          </mxGeometry>
        </mxCell>
        <mxCell id="3i7kKfKKElpx0XJNgIAO-77" value="" style="endArrow=none;html=1;rounded=0;fontSize=12;startSize=8;endSize=8;curved=1;entryX=0.5;entryY=1;entryDx=0;entryDy=0;exitX=0.5;exitY=0;exitDx=0;exitDy=0;" edge="1" parent="1" source="3i7kKfKKElpx0XJNgIAO-71" target="3i7kKfKKElpx0XJNgIAO-50">
          <mxGeometry width="50" height="50" relative="1" as="geometry">
            <mxPoint x="1956.25" y="85" as="sourcePoint" />
            <mxPoint x="2006.25" y="35" as="targetPoint" />
          </mxGeometry>
        </mxCell>
        <mxCell id="3i7kKfKKElpx0XJNgIAO-78" value="" style="endArrow=none;html=1;rounded=0;fontSize=12;startSize=8;endSize=8;curved=1;entryX=0.5;entryY=1;entryDx=0;entryDy=0;exitX=0.5;exitY=0;exitDx=0;exitDy=0;" edge="1" parent="1" source="3i7kKfKKElpx0XJNgIAO-72" target="3i7kKfKKElpx0XJNgIAO-50">
          <mxGeometry width="50" height="50" relative="1" as="geometry">
            <mxPoint x="1956.25" y="85" as="sourcePoint" />
            <mxPoint x="2006.25" y="35" as="targetPoint" />
          </mxGeometry>
        </mxCell>
        <mxCell id="3i7kKfKKElpx0XJNgIAO-79" value="V-R" style="rhombus;whiteSpace=wrap;html=1;gradientColor=default;" vertex="1" parent="1">
          <mxGeometry x="1818" y="5" width="85" height="80" as="geometry" />
        </mxCell>
        <mxCell id="3i7kKfKKElpx0XJNgIAO-80" value="E-V" style="rhombus;whiteSpace=wrap;html=1;gradientColor=default;" vertex="1" parent="1">
          <mxGeometry x="2170" y="5" width="85" height="80" as="geometry" />
        </mxCell>
        <mxCell id="3i7kKfKKElpx0XJNgIAO-81" value="" style="endArrow=none;html=1;rounded=0;fontSize=12;startSize=8;endSize=8;curved=1;entryX=0.5;entryY=1;entryDx=0;entryDy=0;exitX=0.5;exitY=0;exitDx=0;exitDy=0;" edge="1" parent="1" source="3i7kKfKKElpx0XJNgIAO-79" target="3i7kKfKKElpx0XJNgIAO-50">
          <mxGeometry width="50" height="50" relative="1" as="geometry">
            <mxPoint x="1960" y="95" as="sourcePoint" />
            <mxPoint x="2010" y="45" as="targetPoint" />
          </mxGeometry>
        </mxCell>
        <mxCell id="3i7kKfKKElpx0XJNgIAO-82" value="" style="endArrow=none;html=1;rounded=0;fontSize=12;startSize=8;endSize=8;curved=1;exitX=0.5;exitY=0;exitDx=0;exitDy=0;entryX=0.5;entryY=1;entryDx=0;entryDy=0;" edge="1" parent="1" source="3i7kKfKKElpx0XJNgIAO-80" target="3i7kKfKKElpx0XJNgIAO-50">
          <mxGeometry width="50" height="50" relative="1" as="geometry">
            <mxPoint x="1960" y="95" as="sourcePoint" />
            <mxPoint x="2040" y="-5" as="targetPoint" />
          </mxGeometry>
        </mxCell>
        <mxCell id="3i7kKfKKElpx0XJNgIAO-83" value="Etterem" style="ellipse;whiteSpace=wrap;html=1;labelBackgroundColor=none;gradientColor=default;fillColor=default;" vertex="1" parent="1">
          <mxGeometry x="2597.5" y="-85" width="120" height="80" as="geometry" />
        </mxCell>
        <mxCell id="3i7kKfKKElpx0XJNgIAO-84" value="Gyakornok" style="ellipse;whiteSpace=wrap;html=1;labelBackgroundColor=none;gradientColor=default;fillColor=default;" vertex="1" parent="1">
          <mxGeometry x="2602.5" y="-80" width="110" height="70" as="geometry" />
        </mxCell>
        <mxCell id="3i7kKfKKElpx0XJNgIAO-85" value="Gyakorlat" style="ellipse;whiteSpace=wrap;html=1;labelBackgroundColor=none;gradientColor=default;fillColor=default;" vertex="1" parent="1">
          <mxGeometry x="2605" y="75" width="105" height="60" as="geometry" />
        </mxCell>
        <mxCell id="3i7kKfKKElpx0XJNgIAO-86" value="" style="endArrow=none;html=1;rounded=0;fontSize=12;startSize=8;endSize=8;curved=1;exitX=0.5;exitY=0;exitDx=0;exitDy=0;" edge="1" parent="1" source="3i7kKfKKElpx0XJNgIAO-85">
          <mxGeometry width="50" height="50" relative="1" as="geometry">
            <mxPoint x="2637.5" y="55" as="sourcePoint" />
            <mxPoint x="2657.5" y="-5" as="targetPoint" />
          </mxGeometry>
        </mxCell>
        <mxCell id="3i7kKfKKElpx0XJNgIAO-87" value="&lt;div&gt;Kezdete&lt;/div&gt;" style="ellipse;whiteSpace=wrap;html=1;labelBackgroundColor=none;gradientColor=default;fillColor=default;" vertex="1" parent="1">
          <mxGeometry x="2550" y="165" width="105" height="60" as="geometry" />
        </mxCell>
        <mxCell id="3i7kKfKKElpx0XJNgIAO-88" value="&lt;div&gt;Idotartama&lt;/div&gt;" style="ellipse;whiteSpace=wrap;html=1;labelBackgroundColor=none;gradientColor=default;fillColor=default;" vertex="1" parent="1">
          <mxGeometry x="2660" y="165" width="105" height="60" as="geometry" />
        </mxCell>
        <mxCell id="3i7kKfKKElpx0XJNgIAO-89" value="" style="endArrow=none;html=1;rounded=0;fontSize=12;startSize=8;endSize=8;curved=1;entryX=0.5;entryY=1;entryDx=0;entryDy=0;exitX=0.5;exitY=0;exitDx=0;exitDy=0;" edge="1" parent="1" source="3i7kKfKKElpx0XJNgIAO-87" target="3i7kKfKKElpx0XJNgIAO-85">
          <mxGeometry width="50" height="50" relative="1" as="geometry">
            <mxPoint x="2627.5" y="95" as="sourcePoint" />
            <mxPoint x="2677.5" y="45" as="targetPoint" />
          </mxGeometry>
        </mxCell>
        <mxCell id="3i7kKfKKElpx0XJNgIAO-90" value="" style="endArrow=none;html=1;rounded=0;fontSize=12;startSize=8;endSize=8;curved=0;entryX=0.5;entryY=1;entryDx=0;entryDy=0;exitX=0.5;exitY=0;exitDx=0;exitDy=0;" edge="1" parent="1" source="3i7kKfKKElpx0XJNgIAO-88" target="3i7kKfKKElpx0XJNgIAO-85">
          <mxGeometry width="50" height="50" relative="1" as="geometry">
            <mxPoint x="2627.5" y="95" as="sourcePoint" />
            <mxPoint x="2677.5" y="45" as="targetPoint" />
          </mxGeometry>
        </mxCell>
        <mxCell id="3i7kKfKKElpx0XJNgIAO-91" value="Nev" style="ellipse;whiteSpace=wrap;html=1;labelBackgroundColor=none;gradientColor=default;fillColor=default;" vertex="1" parent="1">
          <mxGeometry x="2440" y="75" width="105" height="60" as="geometry" />
        </mxCell>
        <mxCell id="3i7kKfKKElpx0XJNgIAO-92" value="Muszak" style="ellipse;whiteSpace=wrap;html=1;labelBackgroundColor=none;gradientColor=default;fillColor=default;" vertex="1" parent="1">
          <mxGeometry x="2765" y="80" width="105" height="60" as="geometry" />
        </mxCell>
        <mxCell id="3i7kKfKKElpx0XJNgIAO-93" value="" style="endArrow=none;html=1;rounded=0;fontSize=12;startSize=8;endSize=8;curved=1;exitX=0.5;exitY=0;exitDx=0;exitDy=0;" edge="1" parent="1" source="3i7kKfKKElpx0XJNgIAO-91">
          <mxGeometry width="50" height="50" relative="1" as="geometry">
            <mxPoint x="2627.5" y="95" as="sourcePoint" />
            <mxPoint x="2657.5" y="-5" as="targetPoint" />
          </mxGeometry>
        </mxCell>
        <mxCell id="3i7kKfKKElpx0XJNgIAO-94" value="" style="endArrow=none;html=1;rounded=0;fontSize=12;startSize=8;endSize=8;curved=1;exitX=0.5;exitY=0;exitDx=0;exitDy=0;" edge="1" parent="1" source="3i7kKfKKElpx0XJNgIAO-92">
          <mxGeometry width="50" height="50" relative="1" as="geometry">
            <mxPoint x="2627.5" y="95" as="sourcePoint" />
            <mxPoint x="2657.5" y="-5" as="targetPoint" />
          </mxGeometry>
        </mxCell>
        <mxCell id="3i7kKfKKElpx0XJNgIAO-95" value="" style="rounded=0;whiteSpace=wrap;html=1;fillColor=default;fillStyle=solid;gradientColor=default;" vertex="1" parent="1">
          <mxGeometry x="2467.5" y="175" width="50" height="70" as="geometry" />
        </mxCell>
        <mxCell id="3i7kKfKKElpx0XJNgIAO-96" value="" style="rounded=0;whiteSpace=wrap;html=1;fillColor=default;fillStyle=solid;gradientColor=default;" vertex="1" parent="1">
          <mxGeometry x="2577.5" y="265" width="50" height="70" as="geometry" />
        </mxCell>
        <mxCell id="3i7kKfKKElpx0XJNgIAO-97" value="" style="rounded=0;whiteSpace=wrap;html=1;fillColor=default;fillStyle=solid;gradientColor=default;" vertex="1" parent="1">
          <mxGeometry x="2687.5" y="265" width="50" height="70" as="geometry" />
        </mxCell>
        <mxCell id="3i7kKfKKElpx0XJNgIAO-98" value="" style="endArrow=none;html=1;rounded=0;fontSize=12;startSize=8;endSize=8;curved=1;entryX=0.5;entryY=1;entryDx=0;entryDy=0;exitX=0.5;exitY=0;exitDx=0;exitDy=0;" edge="1" parent="1" source="3i7kKfKKElpx0XJNgIAO-95" target="3i7kKfKKElpx0XJNgIAO-91">
          <mxGeometry width="50" height="50" relative="1" as="geometry">
            <mxPoint x="2557.5" y="155" as="sourcePoint" />
            <mxPoint x="2607.5" y="105" as="targetPoint" />
          </mxGeometry>
        </mxCell>
        <mxCell id="3i7kKfKKElpx0XJNgIAO-99" value="" style="endArrow=none;html=1;rounded=0;fontSize=12;startSize=8;endSize=8;curved=1;entryX=0.5;entryY=1;entryDx=0;entryDy=0;exitX=0.5;exitY=0;exitDx=0;exitDy=0;" edge="1" parent="1" source="3i7kKfKKElpx0XJNgIAO-96" target="3i7kKfKKElpx0XJNgIAO-87">
          <mxGeometry width="50" height="50" relative="1" as="geometry">
            <mxPoint x="2552.5" y="215" as="sourcePoint" />
            <mxPoint x="2602.5" y="165" as="targetPoint" />
          </mxGeometry>
        </mxCell>
        <mxCell id="3i7kKfKKElpx0XJNgIAO-100" value="" style="endArrow=none;html=1;rounded=0;fontSize=12;startSize=8;endSize=8;curved=1;entryX=0.5;entryY=1;entryDx=0;entryDy=0;exitX=0.5;exitY=0;exitDx=0;exitDy=0;" edge="1" parent="1" source="3i7kKfKKElpx0XJNgIAO-97" target="3i7kKfKKElpx0XJNgIAO-88">
          <mxGeometry width="50" height="50" relative="1" as="geometry">
            <mxPoint x="2540" y="215" as="sourcePoint" />
            <mxPoint x="2590" y="165" as="targetPoint" />
          </mxGeometry>
        </mxCell>
        <mxCell id="3i7kKfKKElpx0XJNgIAO-101" value="" style="rounded=0;whiteSpace=wrap;html=1;fillColor=default;fillStyle=solid;gradientColor=default;" vertex="1" parent="1">
          <mxGeometry x="2792.5" y="180" width="50" height="70" as="geometry" />
        </mxCell>
        <mxCell id="3i7kKfKKElpx0XJNgIAO-102" value="" style="endArrow=none;html=1;rounded=0;fontSize=12;startSize=8;endSize=8;curved=1;entryX=0.5;entryY=1;entryDx=0;entryDy=0;exitX=0.5;exitY=0;exitDx=0;exitDy=0;" edge="1" parent="1" source="3i7kKfKKElpx0XJNgIAO-101" target="3i7kKfKKElpx0XJNgIAO-92">
          <mxGeometry width="50" height="50" relative="1" as="geometry">
            <mxPoint x="2540" y="220" as="sourcePoint" />
            <mxPoint x="2590" y="170" as="targetPoint" />
          </mxGeometry>
        </mxCell>
        <mxCell id="3i7kKfKKElpx0XJNgIAO-103" value="Vkod" style="rhombus;whiteSpace=wrap;html=1;gradientColor=default;" vertex="1" parent="1">
          <mxGeometry x="1072.5" y="5" width="80" height="80" as="geometry" />
        </mxCell>
        <mxCell id="3i7kKfKKElpx0XJNgIAO-105" value="" style="endArrow=none;html=1;rounded=0;fontSize=12;startSize=8;endSize=8;curved=1;entryX=0.5;entryY=0;entryDx=0;entryDy=0;exitX=0.5;exitY=1;exitDx=0;exitDy=0;" edge="1" parent="1" source="3i7kKfKKElpx0XJNgIAO-1" target="3i7kKfKKElpx0XJNgIAO-103">
          <mxGeometry width="50" height="50" relative="1" as="geometry">
            <mxPoint x="1420" y="5" as="sourcePoint" />
            <mxPoint x="1220" y="75" as="targetPoint" />
          </mxGeometry>
        </mxCell>
        <mxCell id="3i7kKfKKElpx0XJNgIAO-107" value="Muszak" style="ellipse;whiteSpace=wrap;html=1;labelBackgroundColor=none;gradientColor=default;fillColor=default;" vertex="1" parent="1">
          <mxGeometry x="2770" y="82.5" width="95" height="55" as="geometry" />
        </mxCell>
        <mxCell id="3i7kKfKKElpx0XJNgIAO-108" value="" style="endArrow=none;html=1;rounded=0;fontSize=12;startSize=8;endSize=8;curved=1;entryX=0.5;entryY=1;entryDx=0;entryDy=0;exitX=0.5;exitY=0;exitDx=0;exitDy=0;" edge="1" parent="1" source="3i7kKfKKElpx0XJNgIAO-50" target="3i7kKfKKElpx0XJNgIAO-25">
          <mxGeometry width="50" height="50" relative="1" as="geometry">
            <mxPoint x="1920" y="-115" as="sourcePoint" />
            <mxPoint x="1080" y="-255" as="targetPoint" />
          </mxGeometry>
        </mxCell>
        <mxCell id="3i7kKfKKElpx0XJNgIAO-109" value="" style="endArrow=none;dashed=1;html=1;dashPattern=1 3;strokeWidth=2;rounded=0;fontSize=12;startSize=8;endSize=8;entryX=0.5;entryY=1;entryDx=0;entryDy=0;exitX=0.5;exitY=1;exitDx=0;exitDy=0;edgeStyle=orthogonalEdgeStyle;" edge="1" parent="1" source="3i7kKfKKElpx0XJNgIAO-79" target="3i7kKfKKElpx0XJNgIAO-103">
          <mxGeometry width="50" height="50" relative="1" as="geometry">
            <mxPoint x="1660" y="175" as="sourcePoint" />
            <mxPoint x="1710" y="125" as="targetPoint" />
            <Array as="points">
              <mxPoint x="1861" y="420" />
              <mxPoint x="1113" y="420" />
            </Array>
          </mxGeometry>
        </mxCell>
        <mxCell id="3i7kKfKKElpx0XJNgIAO-110" value="" style="endArrow=none;dashed=1;html=1;dashPattern=1 3;strokeWidth=2;rounded=0;fontSize=12;startSize=8;endSize=8;entryX=0.5;entryY=1;entryDx=0;entryDy=0;exitX=0;exitY=1;exitDx=0;exitDy=0;edgeStyle=elbowEdgeStyle;startArrow=classic;startFill=1;elbow=vertical;" edge="1" parent="1" source="3i7kKfKKElpx0XJNgIAO-29" target="3i7kKfKKElpx0XJNgIAO-80">
          <mxGeometry width="50" height="50" relative="1" as="geometry">
            <mxPoint x="-80" y="560" as="sourcePoint" />
            <mxPoint x="1722" y="-13" as="targetPoint" />
            <Array as="points">
              <mxPoint x="663" y="489" />
            </Array>
          </mxGeometry>
        </mxCell>
        <mxCell id="3i7kKfKKElpx0XJNgIAO-111" value="E-GY" style="rhombus;whiteSpace=wrap;html=1;gradientColor=default;" vertex="1" parent="1">
          <mxGeometry x="2930" y="5.000000000000002" width="85" height="80" as="geometry" />
        </mxCell>
        <mxCell id="3i7kKfKKElpx0XJNgIAO-112" value="Gykod" style="rhombus;whiteSpace=wrap;html=1;gradientColor=default;" vertex="1" parent="1">
          <mxGeometry x="2320" y="10.000000000000002" width="85" height="80" as="geometry" />
        </mxCell>
        <mxCell id="3i7kKfKKElpx0XJNgIAO-114" value="" style="endArrow=none;html=1;rounded=0;fontSize=12;startSize=8;endSize=8;curved=1;entryX=0.5;entryY=1;entryDx=0;entryDy=0;exitX=0.5;exitY=0;exitDx=0;exitDy=0;" edge="1" parent="1" source="3i7kKfKKElpx0XJNgIAO-112" target="3i7kKfKKElpx0XJNgIAO-83">
          <mxGeometry width="50" height="50" relative="1" as="geometry">
            <mxPoint x="2640" y="140" as="sourcePoint" />
            <mxPoint x="2690" y="90" as="targetPoint" />
          </mxGeometry>
        </mxCell>
        <mxCell id="3i7kKfKKElpx0XJNgIAO-115" value="" style="endArrow=none;html=1;rounded=0;fontSize=12;startSize=8;endSize=8;curved=1;exitX=0.5;exitY=0;exitDx=0;exitDy=0;entryX=0.5;entryY=1;entryDx=0;entryDy=0;" edge="1" parent="1" source="3i7kKfKKElpx0XJNgIAO-111" target="3i7kKfKKElpx0XJNgIAO-83">
          <mxGeometry width="50" height="50" relative="1" as="geometry">
            <mxPoint x="2640" y="140" as="sourcePoint" />
            <mxPoint x="2660" as="targetPoint" />
          </mxGeometry>
        </mxCell>
        <mxCell id="3i7kKfKKElpx0XJNgIAO-117" value="" style="endArrow=none;dashed=1;html=1;dashPattern=1 3;strokeWidth=2;rounded=0;fontSize=12;startSize=8;endSize=8;entryX=0.5;entryY=1;entryDx=0;entryDy=0;exitX=0;exitY=0.5;exitDx=0;exitDy=0;edgeStyle=elbowEdgeStyle;elbow=vertical;startArrow=classic;startFill=1;" edge="1" parent="1" source="3i7kKfKKElpx0XJNgIAO-29" target="3i7kKfKKElpx0XJNgIAO-111">
          <mxGeometry width="50" height="50" relative="1" as="geometry">
            <mxPoint x="430" y="170" as="sourcePoint" />
            <mxPoint x="2420" y="150" as="targetPoint" />
            <Array as="points">
              <mxPoint x="1380" y="520" />
            </Array>
          </mxGeometry>
        </mxCell>
        <mxCell id="3i7kKfKKElpx0XJNgIAO-118" value="" style="endArrow=none;html=1;rounded=0;fontSize=12;startSize=8;endSize=8;curved=1;entryX=0.5;entryY=1;entryDx=0;entryDy=0;exitX=0.5;exitY=0;exitDx=0;exitDy=0;" edge="1" parent="1" source="3i7kKfKKElpx0XJNgIAO-83" target="3i7kKfKKElpx0XJNgIAO-25">
          <mxGeometry width="50" height="50" relative="1" as="geometry">
            <mxPoint x="2090" y="-230" as="sourcePoint" />
            <mxPoint x="2140" y="-280" as="targetPoint" />
          </mxGeometry>
        </mxCell>
        <mxCell id="3i7kKfKKElpx0XJNgIAO-119" value="Etterem" style="ellipse;whiteSpace=wrap;html=1;labelBackgroundColor=none;gradientColor=default;fillColor=default;" vertex="1" parent="1">
          <mxGeometry x="-742.5" y="-80" width="120" height="80" as="geometry" />
        </mxCell>
        <mxCell id="3i7kKfKKElpx0XJNgIAO-120" value="Etterem" style="ellipse;whiteSpace=wrap;html=1;labelBackgroundColor=none;gradientColor=default;fillColor=default;" vertex="1" parent="1">
          <mxGeometry x="-737.5" y="-75" width="110" height="70" as="geometry" />
        </mxCell>
        <mxCell id="3i7kKfKKElpx0XJNgIAO-121" value="Cim" style="ellipse;whiteSpace=wrap;html=1;labelBackgroundColor=none;gradientColor=default;fillColor=default;" vertex="1" parent="1">
          <mxGeometry x="-735" y="80" width="105" height="60" as="geometry" />
        </mxCell>
        <mxCell id="3i7kKfKKElpx0XJNgIAO-122" value="" style="endArrow=none;html=1;rounded=0;fontSize=12;startSize=8;endSize=8;curved=1;exitX=0.5;exitY=0;exitDx=0;exitDy=0;" edge="1" parent="1" source="3i7kKfKKElpx0XJNgIAO-121">
          <mxGeometry width="50" height="50" relative="1" as="geometry">
            <mxPoint x="-702.5" y="60" as="sourcePoint" />
            <mxPoint x="-682.5" as="targetPoint" />
          </mxGeometry>
        </mxCell>
        <mxCell id="3i7kKfKKElpx0XJNgIAO-123" value="Varos" style="ellipse;whiteSpace=wrap;html=1;labelBackgroundColor=none;gradientColor=default;fillColor=default;" vertex="1" parent="1">
          <mxGeometry x="-852.5" y="170" width="105" height="60" as="geometry" />
        </mxCell>
        <mxCell id="3i7kKfKKElpx0XJNgIAO-124" value="&lt;div&gt;Utca&lt;/div&gt;" style="ellipse;whiteSpace=wrap;html=1;labelBackgroundColor=none;gradientColor=default;fillColor=default;" vertex="1" parent="1">
          <mxGeometry x="-735" y="170" width="105" height="60" as="geometry" />
        </mxCell>
        <mxCell id="3i7kKfKKElpx0XJNgIAO-125" value="&lt;div&gt;Hazszam&lt;/div&gt;" style="ellipse;whiteSpace=wrap;html=1;labelBackgroundColor=none;gradientColor=default;fillColor=default;" vertex="1" parent="1">
          <mxGeometry x="-612.5" y="170" width="105" height="60" as="geometry" />
        </mxCell>
        <mxCell id="3i7kKfKKElpx0XJNgIAO-126" value="" style="endArrow=none;html=1;rounded=0;fontSize=12;startSize=8;endSize=8;curved=1;entryX=0.5;entryY=1;entryDx=0;entryDy=0;exitX=0.5;exitY=0;exitDx=0;exitDy=0;" edge="1" parent="1" source="3i7kKfKKElpx0XJNgIAO-124" target="3i7kKfKKElpx0XJNgIAO-121">
          <mxGeometry width="50" height="50" relative="1" as="geometry">
            <mxPoint x="-712.5" y="100" as="sourcePoint" />
            <mxPoint x="-662.5" y="50" as="targetPoint" />
          </mxGeometry>
        </mxCell>
        <mxCell id="3i7kKfKKElpx0XJNgIAO-127" value="" style="endArrow=none;html=1;rounded=0;fontSize=12;startSize=8;endSize=8;curved=1;entryX=0.5;entryY=1;entryDx=0;entryDy=0;exitX=0.5;exitY=0;exitDx=0;exitDy=0;" edge="1" parent="1" source="3i7kKfKKElpx0XJNgIAO-123" target="3i7kKfKKElpx0XJNgIAO-121">
          <mxGeometry width="50" height="50" relative="1" as="geometry">
            <mxPoint x="-712.5" y="100" as="sourcePoint" />
            <mxPoint x="-662.5" y="50" as="targetPoint" />
          </mxGeometry>
        </mxCell>
        <mxCell id="3i7kKfKKElpx0XJNgIAO-128" value="" style="endArrow=none;html=1;rounded=0;fontSize=12;startSize=8;endSize=8;curved=1;entryX=0.5;entryY=1;entryDx=0;entryDy=0;exitX=0.5;exitY=0;exitDx=0;exitDy=0;" edge="1" parent="1" source="3i7kKfKKElpx0XJNgIAO-125" target="3i7kKfKKElpx0XJNgIAO-121">
          <mxGeometry width="50" height="50" relative="1" as="geometry">
            <mxPoint x="-712.5" y="100" as="sourcePoint" />
            <mxPoint x="-662.5" y="50" as="targetPoint" />
          </mxGeometry>
        </mxCell>
        <mxCell id="3i7kKfKKElpx0XJNgIAO-129" value="Nev" style="ellipse;whiteSpace=wrap;html=1;labelBackgroundColor=none;gradientColor=default;fillColor=default;" vertex="1" parent="1">
          <mxGeometry x="-950" y="80" width="105" height="60" as="geometry" />
        </mxCell>
        <mxCell id="3i7kKfKKElpx0XJNgIAO-130" value="Csillag" style="ellipse;whiteSpace=wrap;html=1;labelBackgroundColor=none;gradientColor=default;fillColor=default;" vertex="1" parent="1">
          <mxGeometry x="-507.5" y="80" width="105" height="60" as="geometry" />
        </mxCell>
        <mxCell id="3i7kKfKKElpx0XJNgIAO-131" value="" style="endArrow=none;html=1;rounded=0;fontSize=12;startSize=8;endSize=8;curved=1;exitX=0.5;exitY=0;exitDx=0;exitDy=0;" edge="1" parent="1" source="3i7kKfKKElpx0XJNgIAO-129">
          <mxGeometry width="50" height="50" relative="1" as="geometry">
            <mxPoint x="-712.5" y="100" as="sourcePoint" />
            <mxPoint x="-682.5" as="targetPoint" />
          </mxGeometry>
        </mxCell>
        <mxCell id="3i7kKfKKElpx0XJNgIAO-132" value="" style="endArrow=none;html=1;rounded=0;fontSize=12;startSize=8;endSize=8;curved=1;exitX=0.5;exitY=0;exitDx=0;exitDy=0;" edge="1" parent="1" source="3i7kKfKKElpx0XJNgIAO-130">
          <mxGeometry width="50" height="50" relative="1" as="geometry">
            <mxPoint x="-712.5" y="100" as="sourcePoint" />
            <mxPoint x="-682.5" as="targetPoint" />
          </mxGeometry>
        </mxCell>
        <mxCell id="3i7kKfKKElpx0XJNgIAO-133" value="" style="rounded=0;whiteSpace=wrap;html=1;fillColor=default;fillStyle=solid;gradientColor=default;" vertex="1" parent="1">
          <mxGeometry x="-922.5" y="180" width="50" height="70" as="geometry" />
        </mxCell>
        <mxCell id="3i7kKfKKElpx0XJNgIAO-134" value="" style="rounded=0;whiteSpace=wrap;html=1;fillColor=default;fillStyle=solid;gradientColor=default;" vertex="1" parent="1">
          <mxGeometry x="-825" y="270" width="50" height="70" as="geometry" />
        </mxCell>
        <mxCell id="3i7kKfKKElpx0XJNgIAO-135" value="" style="rounded=0;whiteSpace=wrap;html=1;fillColor=default;fillStyle=solid;gradientColor=default;" vertex="1" parent="1">
          <mxGeometry x="-707.5" y="270" width="50" height="70" as="geometry" />
        </mxCell>
        <mxCell id="3i7kKfKKElpx0XJNgIAO-136" value="" style="rounded=0;whiteSpace=wrap;html=1;fillColor=default;fillStyle=solid;gradientColor=default;" vertex="1" parent="1">
          <mxGeometry x="-585" y="270" width="50" height="70" as="geometry" />
        </mxCell>
        <mxCell id="3i7kKfKKElpx0XJNgIAO-137" value="" style="endArrow=none;html=1;rounded=0;fontSize=12;startSize=8;endSize=8;curved=1;entryX=0.5;entryY=1;entryDx=0;entryDy=0;exitX=0.5;exitY=0;exitDx=0;exitDy=0;" edge="1" parent="1" source="3i7kKfKKElpx0XJNgIAO-133" target="3i7kKfKKElpx0XJNgIAO-129">
          <mxGeometry width="50" height="50" relative="1" as="geometry">
            <mxPoint x="-832.5" y="160" as="sourcePoint" />
            <mxPoint x="-782.5" y="110" as="targetPoint" />
          </mxGeometry>
        </mxCell>
        <mxCell id="3i7kKfKKElpx0XJNgIAO-138" value="" style="endArrow=none;html=1;rounded=0;fontSize=12;startSize=8;endSize=8;curved=1;entryX=0.5;entryY=1;entryDx=0;entryDy=0;exitX=0.5;exitY=0;exitDx=0;exitDy=0;" edge="1" parent="1" source="3i7kKfKKElpx0XJNgIAO-134" target="3i7kKfKKElpx0XJNgIAO-123">
          <mxGeometry width="50" height="50" relative="1" as="geometry">
            <mxPoint x="-732.5" y="220" as="sourcePoint" />
            <mxPoint x="-682.5" y="170" as="targetPoint" />
          </mxGeometry>
        </mxCell>
        <mxCell id="3i7kKfKKElpx0XJNgIAO-139" value="" style="endArrow=none;html=1;rounded=0;fontSize=12;startSize=8;endSize=8;curved=1;entryX=0.5;entryY=1;entryDx=0;entryDy=0;exitX=0.5;exitY=0;exitDx=0;exitDy=0;" edge="1" parent="1" source="3i7kKfKKElpx0XJNgIAO-135" target="3i7kKfKKElpx0XJNgIAO-124">
          <mxGeometry width="50" height="50" relative="1" as="geometry">
            <mxPoint x="-732.5" y="220" as="sourcePoint" />
            <mxPoint x="-682.5" y="170" as="targetPoint" />
          </mxGeometry>
        </mxCell>
        <mxCell id="3i7kKfKKElpx0XJNgIAO-140" value="" style="endArrow=none;html=1;rounded=0;fontSize=12;startSize=8;endSize=8;curved=1;entryX=0.5;entryY=1;entryDx=0;entryDy=0;exitX=0.5;exitY=0;exitDx=0;exitDy=0;" edge="1" parent="1" source="3i7kKfKKElpx0XJNgIAO-136" target="3i7kKfKKElpx0XJNgIAO-125">
          <mxGeometry width="50" height="50" relative="1" as="geometry">
            <mxPoint x="-732.5" y="220" as="sourcePoint" />
            <mxPoint x="-682.5" y="170" as="targetPoint" />
          </mxGeometry>
        </mxCell>
        <mxCell id="3i7kKfKKElpx0XJNgIAO-141" value="" style="rounded=0;whiteSpace=wrap;html=1;fillColor=default;fillStyle=solid;gradientColor=default;" vertex="1" parent="1">
          <mxGeometry x="-480" y="180" width="50" height="70" as="geometry" />
        </mxCell>
        <mxCell id="3i7kKfKKElpx0XJNgIAO-142" value="" style="endArrow=none;html=1;rounded=0;fontSize=12;startSize=8;endSize=8;curved=1;entryX=0.5;entryY=1;entryDx=0;entryDy=0;exitX=0.5;exitY=0;exitDx=0;exitDy=0;" edge="1" parent="1" source="3i7kKfKKElpx0XJNgIAO-141" target="3i7kKfKKElpx0XJNgIAO-130">
          <mxGeometry width="50" height="50" relative="1" as="geometry">
            <mxPoint x="-732.5" y="220" as="sourcePoint" />
            <mxPoint x="-682.5" y="170" as="targetPoint" />
          </mxGeometry>
        </mxCell>
        <mxCell id="3i7kKfKKElpx0XJNgIAO-145" value="" style="endArrow=none;html=1;rounded=0;fontSize=12;startSize=8;endSize=8;curved=1;entryX=0.5;entryY=0;entryDx=0;entryDy=0;exitX=0.5;exitY=1;exitDx=0;exitDy=0;" edge="1" parent="1" source="3i7kKfKKElpx0XJNgIAO-119" target="3i7kKfKKElpx0XJNgIAO-29">
          <mxGeometry width="50" height="50" relative="1" as="geometry">
            <mxPoint x="-682.5" y="5" as="sourcePoint" />
            <mxPoint x="-990" y="5" as="targetPoint" />
          </mxGeometry>
        </mxCell>
        <mxCell id="3i7kKfKKElpx0XJNgIAO-147" value="Ekod" style="rhombus;whiteSpace=wrap;html=1;gradientColor=default;" vertex="1" parent="1">
          <mxGeometry x="-184" y="-5.000000000000001" width="80" height="80" as="geometry" />
        </mxCell>
        <mxCell id="3i7kKfKKElpx0XJNgIAO-148" value="" style="endArrow=none;html=1;rounded=0;fontSize=12;startSize=8;endSize=8;curved=1;entryX=0.5;entryY=0;entryDx=0;entryDy=0;exitX=0.5;exitY=1;exitDx=0;exitDy=0;" edge="1" parent="1" source="3i7kKfKKElpx0XJNgIAO-27" target="3i7kKfKKElpx0XJNgIAO-147">
          <mxGeometry width="50" height="50" relative="1" as="geometry">
            <mxPoint x="-331" y="74" as="sourcePoint" />
            <mxPoint x="-281" y="24" as="targetPoint" />
          </mxGeometry>
        </mxCell>
        <mxCell id="3i7kKfKKElpx0XJNgIAO-150" value="" style="endArrow=none;html=1;rounded=0;fontSize=12;startSize=8;endSize=8;curved=1;entryX=0.5;entryY=0;entryDx=0;entryDy=0;exitX=0.5;exitY=1;exitDx=0;exitDy=0;" edge="1" parent="1" source="3i7kKfKKElpx0XJNgIAO-25" target="3i7kKfKKElpx0XJNgIAO-119">
          <mxGeometry width="50" height="50" relative="1" as="geometry">
            <mxPoint x="66" y="-189" as="sourcePoint" />
            <mxPoint x="116" y="-239" as="targetPoint" />
          </mxGeometry>
        </mxCell>
      </root>
    </mxGraphModel>
  </diagram>
</mxfile>
